<?xml version="1.0" encoding="utf-8"?>
<!-- Generator: Adobe Illustrator 23.0.2, SVG Export Plug-In . SVG Version: 6.00 Build 0)  -->
<svg version="1.1" xmlns="http://www.w3.org/2000/svg" xmlns:xlink="http://www.w3.org/1999/xlink" x="0px" y="0px"
	 viewBox="0 0 600 300" style="enable-background:new 0 0 600 300;" xml:space="preserve">
<style type="text/css">
	.st0{display:none;}
	.st1{display:inline;}
	.st2{fill:none;}
	.st3{fill:#0084C6;}
	.st4{fill:#467EE0;}
	.st5{fill:#555555;}
	.st6{fill:#999999;}
	.st7{fill:#FFFFFF;}
	.st8{fill:#CCCCCC;}
	.st9{fill:#333333;}
	.st10{fill:#666666;}
</style>
<g id="レイヤー_1">
</g>
<g id="logo" class="st0">
</g>
<g id="レイヤー_3">
	<g>
		<path class="st2" d="M283.93,186.78c2.41-0.67,4.56-1.67,6.45-3.01c1.88-1.34,3.4-2.97,4.55-4.91c1.15-1.93,1.72-4.17,1.72-6.7
			c0-3.06-0.79-5.77-2.36-8.13c-0.13-0.19-0.3-0.36-0.43-0.54l-10.85,23.48C283.3,186.9,283.62,186.86,283.93,186.78z"/>
		<g>
			<path class="st5" d="M204.31,51.63l41.19,89.48h-14.94l-13.37-29.2H179.7l-13.81,29.2h-7.35l42.13-89.48H204.31z M182.27,106.25
				h32.21l-15.89-34.6L182.27,106.25z"/>
			<path class="st5" d="M84.43,155.26h29.91c9.26,0,17.21,0.86,23.87,2.58c6.65,1.72,12.2,4.48,16.63,8.27
				c5.08,4.31,8.9,9.27,11.47,14.89c2.56,5.62,3.84,11.77,3.84,18.44c0,6.33-1.15,12.27-3.46,17.83
				c-2.31,5.56-5.66,10.41-10.08,14.57c-4.41,4.16-9.86,7.43-16.34,9.82c-6.48,2.39-13.9,3.58-22.25,3.58H84.43V155.26z
				 M99.55,238.65h16.02c5.08,0,9.86-0.84,14.34-2.52c4.48-1.68,8.39-4.17,11.72-7.46c3.34-3.29,5.96-7.36,7.88-12.21
				c1.92-4.84,2.87-10.43,2.87-16.76c0-5.51-0.9-10.58-2.71-15.21c-1.81-4.63-4.34-8.61-7.59-11.95c-3.25-3.34-7.13-5.94-11.63-7.82
				c-4.5-1.87-9.42-2.81-14.76-2.81H99.55V238.65z"/>
			<path class="st5" d="M247.53,155.26v5.81h-47.41v32.17h31.72v5.81h-31.72v40.37h57.47l-2.76,5.81H185v-89.98H247.53z"/>
			<path class="st5" d="M293.35,141.58c-3.39-2.01-6.84-3.94-10.35-5.8c-3.51-1.86-6.96-3.69-10.35-5.48
				c-3.39-1.79-6.4-3.66-9.03-5.62c-2.63-1.96-4.75-4.02-6.38-6.2c-1.63-2.17-2.44-4.57-2.44-7.2c0-1.86,0.39-3.69,1.18-5.48
				c0.79-1.79,1.96-3.39,3.51-4.8c1.55-1.41,3.51-2.55,5.87-3.44c2.36-0.88,5.12-1.33,8.27-1.33c3.53,0,6.71,0.49,9.53,1.47
				c2.82,0.98,5.31,2.38,7.49,4.19c2.17,1.82,4.03,3.99,5.59,6.52c1.55,2.53,2.83,5.33,3.83,8.38l8.6-3.94
				c-2.44-7.5-6.39-13.23-11.86-17.19c-5.47-3.96-12.93-5.95-22.38-5.95c-5.25,0-9.9,0.68-13.93,2.04
				c-4.04,1.36-7.44,3.24-10.21,5.62c-2.77,2.39-4.87,5.22-6.3,8.49c-1.43,3.27-2.15,6.82-2.15,10.64c0,3.82,0.79,7.2,2.36,10.14
				c1.58,2.94,3.64,5.59,6.2,7.95c2.55,2.36,5.48,4.51,8.77,6.45c3.3,1.93,6.65,3.79,10.06,5.55c3.41,1.77,6.77,3.52,10.06,5.27
				c3.3,1.74,6.22,3.62,8.77,5.62c0.36,0.28,0.63,0.59,0.97,0.88l6.98-15.02C295.14,142.75,294.29,142.14,293.35,141.58z"/>
			<path class="st5" d="M267.38,186.38c-2.89-0.93-5.52-2.29-7.88-4.08c-2.36-1.79-4.43-3.98-6.2-6.55
				c-1.77-2.58-3.18-5.49-4.23-8.74l-9.03,3.72c1.34,3.68,3.03,6.97,5.09,9.89c2.05,2.91,4.52,5.37,7.41,7.38
				c2.89,2.01,6.22,3.53,9.99,4.58c2.97,0.83,6.35,1.23,9.94,1.41l2.93-6.29C272.6,187.59,269.91,187.2,267.38,186.38z"/>
			<polygon class="st5" points="132.13,51.91 97.77,120.96 97.06,120.96 62.05,51.91 46.61,51.91 46.61,237.77 53.27,244.42 
				53.27,68.71 54.3,68.71 91.63,141.89 94.74,141.89 131.62,68.19 132.13,68.19 132.13,141.89 147.31,141.89 147.31,51.91 			"/>
		</g>
		<g>
			<path class="st6" d="M390.77,53.64h14.69v38.74l45.96-38.74h9.61l-43.7,36.8l55.45,50.67h-18.71l-48.6-44.39v44.39h-14.69V53.64z
				"/>
			<path class="st6" d="M484.41,53.64l30.33,44.33l30.2-44.33h7.97l-33.91,49.67v37.8h-14.69v-36.42l-34.98-51.05H484.41z"/>
			<path class="st6" d="M328.77,155.26h15.11v89.98h-15.11V155.26z"/>
			<path class="st6" d="M420.22,159.66c-5.43,0-10.42,0.97-14.99,2.91c-4.57,1.94-8.52,4.7-11.85,8.27
				c-3.34,3.57-5.93,7.9-7.78,12.98c-1.86,5.08-2.78,10.79-2.78,17.12c0,6.33,1.01,12.04,3.04,17.12c2.02,5.08,4.78,9.41,8.27,12.98
				c3.49,3.57,7.6,6.33,12.34,8.27c4.73,1.94,9.82,2.91,15.24,2.91c3.96,0,7.53-0.54,10.72-1.61c3.18-1.08,6.02-2.6,8.53-4.59
				v-31.59h-16.99v-5.36h32.1v39.6c-2.63,1.42-5.28,2.67-7.95,3.75c-2.67,1.08-5.55,1.99-8.62,2.75c-3.08,0.75-6.48,1.31-10.21,1.68
				c-3.73,0.37-7.94,0.55-12.63,0.55c-4.96,0-9.68-0.56-14.18-1.68c-4.51-1.12-8.66-2.69-12.47-4.72c-3.81-2.02-7.26-4.46-10.33-7.3
				c-3.08-2.84-5.7-5.98-7.85-9.43c-2.16-3.44-3.81-7.14-4.97-11.08c-1.16-3.94-1.74-8.02-1.74-12.24c0-4.22,0.56-8.33,1.68-12.34
				c1.11-4,2.71-7.77,4.78-11.3c2.07-3.53,4.59-6.77,7.59-9.72c2.99-2.95,6.36-5.49,10.11-7.62c3.75-2.13,7.82-3.79,12.24-4.97
				c4.41-1.18,9.12-1.78,14.11-1.78c4.78,0,9.18,0.65,13.21,1.94c4.02,1.29,7.7,3,11.05,5.14c3.33,2.13,6.3,4.6,8.88,7.4
				c2.58,2.8,4.8,5.71,6.65,8.72l-6.52,4.39c-3.79-7.28-8.01-12.62-12.66-16.02C431.58,161.36,426.24,159.66,420.22,159.66z"/>
			<polygon class="st6" points="546.26,89.48 546.26,221.02 545.68,221.02 486.71,155.26 478.24,155.26 478.24,245.24 
				485.03,245.24 485.03,174.19 485.54,174.19 549.43,247.37 552.91,247.37 552.91,96.13 			"/>
			<path class="st6" d="M342.3,51.63h-3.64l-42.63,91.71l-6.98,15.02l-13.64,29.34l-2.93,6.29l-14.23,30.61h7.35l14.14-30.59
				c4.14-0.29,7.88-0.99,11.21-2.11c4.46-1.5,8.2-3.56,11.21-6.16c3.01-2.6,5.26-5.63,6.77-9.1c1.5-3.46,2.26-7.17,2.26-11.14
				c0-3.49-0.81-6.65-2.44-9.49c-1.63-2.84-3.75-5.46-6.38-7.84c-0.33-0.3-0.71-0.56-1.05-0.86l16.36-35.41h37.49l13.37,29.2h14.94
				L342.3,51.63z M294.92,178.86c-1.15,1.93-2.66,3.57-4.55,4.91c-1.89,1.34-4.04,2.34-6.45,3.01c-0.31,0.09-0.62,0.12-0.93,0.19
				l10.85-23.48c0.13,0.19,0.31,0.35,0.43,0.54c1.58,2.36,2.36,5.07,2.36,8.13C296.64,174.7,296.07,176.93,294.92,178.86z
				 M320.26,106.25l16.33-34.6l15.89,34.6H320.26z"/>
		</g>
	</g>
</g>
<g id="レイヤー_4">
</g>
</svg>
